<svg xmlns="http://www.w3.org/2000/svg" width="1329.8077392578125" height="427.31610107421875" viewBox="-647.4854736328125 -110.63314819335938 1329.8077392578125 427.31610107421875"><title>Neo4j Graph Visualization</title><desc>Created using Neo4j (http://www.neo4j.com/)</desc><g class="layer relationships"><g class="relationship" transform="translate(-190.76607245212364 247.5102437821666) rotate(253.49574665492207)"><path class="outline" fill="#A5ABB6" stroke="none" d="M 25 0.5 L 41.67592860438977 0.5 L 41.67592860438977 -0.5 L 25 -0.5 Z M 88.67592860438977 0.5 L 105.35185720877953 0.5 L 105.35185720877953 3.5 L 112.35185720877953 0 L 105.35185720877953 -3.5 L 105.35185720877953 -0.5 L 88.67592860438977 -0.5 Z"/><text text-anchor="middle" pointer-events="none" font-size="8px" fill="#000000" x="65.17592860438977" y="3" transform="rotate(180 65.17592860438977 0)" font-family="sans-serif">IN_ORDER</text></g><g class="relationship" transform="translate(-190.76607245212364 247.5102437821666) rotate(211.26176326952685)"><path class="outline" fill="#A5ABB6" stroke="none" d="M 24.018736134675446,-6.953439040707552 L 24.277555179777966,-5.987513214418485 A 429.734951090462 429.734951090462 0 0 1 96.4575077841891,-18.8530432490806 L 96.3666526257131,-19.84890736640699 A 430.734951090462 430.734951090462 0 0 0 24.018736134675446,-6.953439040707552 Z M 169.0661660021609,-20.320608092571945 L 168.98824100199784,-19.323648868556404 A 429.734951090462 429.734951090462 0 0 1 241.32906187054877,-7.395821861425158 L 240.59027218122642,-4.488212913345827 L 248.2366143642876,-6.156580744352901 L 242.31411478964523,-11.272633792197599 L 241.57532510032289,-8.365024844118267 A 430.734951090462 430.734951090462 0 0 0 169.0661660021609,-20.320608092571945"/><text text-anchor="middle" pointer-events="none" font-size="8px" fill="#000000" x="132.7096837187721" y="-18.12132067827008" transform="rotate(180 132.7096837187721 -21.12132067827008)" font-family="sans-serif">WAS_VIEWED_BY</text></g><g class="relationship" transform="translate(-190.76607245212364 247.5102437821666) rotate(325.44292034422494)"><path class="outline" fill="#A5ABB6" stroke="none" d="M 25 0.5 L 98.55190589537938 0.5 L 98.55190589537938 -0.5 L 25 -0.5 Z M 145.55190589537938 0.5 L 219.10381179075875 0.5 L 219.10381179075875 3.5 L 226.10381179075875 0 L 219.10381179075875 -3.5 L 219.10381179075875 -0.5 L 145.55190589537938 -0.5 Z"/><text text-anchor="middle" pointer-events="none" font-size="8px" fill="#000000" x="122.05190589537938" y="3" font-family="sans-serif">IN_ORDER</text></g><g class="relationship" transform="translate(-190.76607245212364 247.5102437821666) rotate(298.45199472135806)"><path class="outline" fill="#A5ABB6" stroke="none" d="M 24.018736134675446,-6.953439040707552 L 24.277555179777966,-5.987513214418485 A 229.6427255042293 229.6427255042293 0 0 1 45.26616410533089,-10.571057098351616 L 45.09874185444193,-11.556942380677725 A 230.6427255042293 230.6427255042293 0 0 0 24.018736134675446,-6.953439040707552 Z M 117.65340873571728,-12.30153728349768 L 117.50625498286426,-11.312423653513093 A 229.6427255042293 229.6427255042293 0 0 1 138.5845110118763,-7.160592498328879 L 137.8676882414375,-4.247490180218437 L 145.5012202158738,-5.973523086990068 L 139.5402747057947,-11.044728922476136 L 138.8234519353559,-8.131626604365692 A 230.6427255042293 230.6427255042293 0 0 0 117.65340873571728,-12.30153728349768"/><text text-anchor="middle" pointer-events="none" font-size="8px" fill="#000000" x="81.35174239885272" y="-11.300281016108102" font-family="sans-serif">WAS_VIEWED_BY</text></g><g class="relationship" transform="translate(-190.76607245212364 247.5102437821666) rotate(349.60611545103507)"><path class="outline" fill="#A5ABB6" stroke="none" d="M 25 0.5 L 386.9599739756858 0.5 L 386.9599739756858 -0.5 L 25 -0.5 Z M 433.9599739756858 0.5 L 795.9199479513716 0.5 L 795.9199479513716 3.5 L 802.9199479513716 0 L 795.9199479513716 -3.5 L 795.9199479513716 -0.5 L 433.9599739756858 -0.5 Z"/><text text-anchor="middle" pointer-events="none" font-size="8px" fill="#000000" x="410.4599739756858" y="3" font-family="sans-serif">IN_ORDER</text></g><g class="relationship" transform="translate(-190.76607245212364 247.5102437821666) rotate(343.31720543979577)"><path class="outline" fill="#A5ABB6" stroke="none" d="M 24.018736134675446,-6.953439040707552 L 24.277555179777966,-5.987513214418485 A 936.505286765909 936.505286765909 0 0 1 227.20530463287398,-37.06655571578858 L 227.16317176383552,-38.065667732204474 A 937.505286765909 937.505286765909 0 0 0 24.018736134675446,-6.953439040707552 Z M 299.8864383965979,-38.30928230908478 L 299.85100021866805,-37.309910438585575 A 936.505286765909 936.505286765909 0 0 1 502.9824154196458,-7.591119424338136 L 502.2253899350324,-4.688204955111412 L 509.8820534286104,-6.308545705111363 L 503.9917827324636,-11.461672049973767 L 503.2347572478502,-8.558757580747043 A 937.505286765909 937.505286765909 0 0 0 299.8864383965979,-38.30928230908478"/><text text-anchor="middle" pointer-events="none" font-size="8px" fill="#000000" x="263.5241169312697" y="-35.392899671329815" font-family="sans-serif">WAS_VIEWED_BY</text></g><g class="relationship" transform="translate(-185.29163107007412 -41.48727843268678) rotate(468.8361587841247)"><path class="outline" fill="#A5ABB6" stroke="none" d="M 25 0.5 L 41.0050017660282 0.5 L 41.0050017660282 -0.5 L 25 -0.5 Z M 88.0050017660282 0.5 L 104.0100035320564 0.5 L 104.0100035320564 3.5 L 111.0100035320564 0 L 104.0100035320564 -3.5 L 104.0100035320564 -0.5 L 88.0050017660282 -0.5 Z"/><text text-anchor="middle" pointer-events="none" font-size="8px" fill="#000000" x="64.5050017660282" y="3" transform="rotate(180 64.5050017660282 0)" font-family="sans-serif">IN_ORDER</text></g><g class="relationship" transform="translate(-185.29163107007412 -41.48727843268678) rotate(508.2348839644858)"><path class="outline" fill="#A5ABB6" stroke="none" d="M 24.018736134675446,-6.953439040707552 L 24.277555179777966,-5.987513214418485 A 445.09665615802214 445.09665615802214 0 0 1 100.40826740892498,-19.435849033263707 L 100.32049146463183,-20.431989276203183 A 446.09665615802214 446.09665615802214 0 0 0 24.018736134675446,-6.953439040707552 Z M 173.02304265565178,-20.89071411460293 L 172.9478437150463,-19.893545563488374 A 445.09665615802214 445.09665615802214 0 0 1 249.24219526354503,-7.406952649177152 L 248.5023661924433,-4.499607993730747 L 256.1493043047702,-6.165242259180889 L 250.22863402501397,-11.283412189772358 L 249.48880495391225,-8.376067534325953 A 446.09665615802214 446.09665615802214 0 0 0 173.02304265565178,-20.89071411460293"/><text text-anchor="middle" pointer-events="none" font-size="8px" fill="#000000" x="136.6655609725524" y="-18.644944391707497" transform="rotate(180 136.6655609725524 -21.644944391707497)" font-family="sans-serif">WAS_VIEWED_BY</text></g><g class="relationship" transform="translate(-185.29163107007412 -41.48727843268678) rotate(392.8662447933242)"><path class="outline" fill="#A5ABB6" stroke="none" d="M 25 0.5 L 92.69866050831406 0.5 L 92.69866050831406 -0.5 L 25 -0.5 Z M 139.69866050831405 0.5 L 207.39732101662813 0.5 L 207.39732101662813 3.5 L 214.39732101662813 0 L 207.39732101662813 -3.5 L 207.39732101662813 -0.5 L 139.69866050831405 -0.5 Z"/><text text-anchor="middle" pointer-events="none" font-size="8px" fill="#000000" x="116.19866050831406" y="3" font-family="sans-serif">IN_ORDER</text></g><g class="relationship" transform="translate(-185.29163107007412 -41.48727843268678) rotate(421.6440613381394)"><path class="outline" fill="#A5ABB6" stroke="none" d="M 24.018736134675446,-6.953439040707552 L 24.277555179777966,-5.987513214418485 A 208.0792557367479 208.0792557367479 0 0 1 39.81079677471615,-9.518383094738397 L 39.62662833108728,-10.50127779121982 A 209.0792557367479 209.0792557367479 0 0 0 24.018736134675446,-6.953439040707552 Z M 112.1313214185273,-11.294800414602236 L 111.9687089592304,-10.308110398395826 A 208.0792557367479 208.0792557367479 0 0 1 127.57550730710587,-7.118050542026445 L 126.86265761418233,-4.203973447078746 L 134.49382881080442,-5.940414107696142 L 128.52597356433725,-11.003486668623378 L 127.81312387141371,-8.089409573675677 A 209.0792557367479 209.0792557367479 0 0 0 112.1313214185273,-11.294800414602236"/><text text-anchor="middle" pointer-events="none" font-size="8px" fill="#000000" x="75.84978485034485" y="-10.565151170672095" font-family="sans-serif">WAS_VIEWED_BY</text></g><g class="relationship" transform="translate(-185.29163107007412 -41.48727843268678) rotate(369.43889155132524)"><path class="outline" fill="#A5ABB6" stroke="none" d="M 25 0.5 L 382.9588497089666 0.5 L 382.9588497089666 -0.5 L 25 -0.5 Z M 429.9588497089666 0.5 L 787.9176994179332 0.5 L 787.9176994179332 3.5 L 794.9176994179332 0 L 787.9176994179332 -3.5 L 787.9176994179332 -0.5 L 429.9588497089666 -0.5 Z"/><text text-anchor="middle" pointer-events="none" font-size="8px" fill="#000000" x="406.4588497089666" y="3" font-family="sans-serif">IN_ORDER</text></g><g class="relationship" transform="translate(-185.29163107007412 -41.48727843268678) rotate(375.0069214325739)"><path class="outline" fill="#A5ABB6" stroke="none" d="M 24.018736134675446,-6.953439040707552 L 24.277555179777966,-5.987513214418485 A 916.9979890542983 916.9979890542983 0 0 1 222.16434043878274,-36.384493819569116 L 222.1213198879202,-37.38356800710653 A 917.9979890542983 917.9979890542983 0 0 0 24.018736134675446,-6.953439040707552 Z M 294.84461145059083,-37.63181092012189 L 294.80841255606265,-36.6324663148755 A 916.9979890542983 916.9979890542983 0 0 1 492.8981056542059,-7.587162075862131 L 492.141449665816,-4.68415127408516 L 499.7979068564171,-6.3054665699153025 L 493.9069803053924,-11.457843144898092 L 493.1503243170025,-8.554832343121122 A 917.9979890542983 917.9979890542983 0 0 0 294.84461145059083,-37.63181092012189"/><text text-anchor="middle" pointer-events="none" font-size="8px" fill="#000000" x="258.48221323524746" y="-34.7281166133107" font-family="sans-serif">WAS_VIEWED_BY</text></g><g class="relationship" transform="translate(-472.8780813202175 -45.03063782457742) rotate(490.68686526007684)"><path class="outline" fill="#A5ABB6" stroke="none" d="M 25 0.5 L 65.67065091442456 0.5 L 65.67065091442456 -0.5 L 25 -0.5 Z M 112.67065091442456 0.5 L 153.3413018288491 0.5 L 153.3413018288491 3.5 L 160.3413018288491 0 L 153.3413018288491 -3.5 L 153.3413018288491 -0.5 L 112.67065091442456 -0.5 Z"/><text text-anchor="middle" pointer-events="none" font-size="8px" fill="#000000" x="89.17065091442456" y="3" transform="rotate(180 89.17065091442456 0)" font-family="sans-serif">IN_ORDER</text></g><g class="relationship" transform="translate(-472.8780813202175 -45.03063782457742) rotate(431.9670348112671)"><path class="outline" fill="#A5ABB6" stroke="none" d="M 24.018736134675446,-6.953439040707552 L 24.277555179777966,-5.987513214418485 A 208.4222915219871 208.4222915219871 0 0 1 39.89739267312772,-9.53562217762709 L 39.71351684729069,-10.51857165785114 A 209.4222915219871 209.4222915219871 0 0 0 24.018736134675446,-6.953439040707552 Z M 112.21914117555728,-11.311267408719374 L 112.05679968230507,-10.324532773891633 A 208.4222915219871 208.4222915219871 0 0 1 127.75047647793089,-7.118770903775332 L 127.03755950825357,-4.204710267078474 L 134.66877079183644,-5.94097474731105 L 128.70103243750066,-11.004185086037811 L 127.98811546782333,-8.090124449340951 A 209.4222915219871 209.4222915219871 0 0 0 112.21914117555728,-11.311267408719374"/><text text-anchor="middle" pointer-events="none" font-size="8px" fill="#000000" x="75.93722647550895" y="-10.57684566792716" font-family="sans-serif">WAS_VIEWED_BY</text></g><g class="relationship" transform="translate(-477.74585952217717 242.2489264570197) rotate(227.11098353053967)"><path class="outline" fill="#A5ABB6" stroke="none" d="M 25 0.5 L 57.87676932616907 0.5 L 57.87676932616907 -0.5 L 25 -0.5 Z M 104.87676932616907 0.5 L 137.75353865233814 0.5 L 137.75353865233814 3.5 L 144.75353865233814 0 L 137.75353865233814 -3.5 L 137.75353865233814 -0.5 L 104.87676932616907 -0.5 Z"/><text text-anchor="middle" pointer-events="none" font-size="8px" fill="#000000" x="81.37676932616907" y="3" transform="rotate(180 81.37676932616907 0)" font-family="sans-serif">IN_ORDER</text></g><g class="relationship" transform="translate(-477.74585952217717 242.2489264570197) rotate(291.6633427281904)"><path class="outline" fill="#A5ABB6" stroke="none" d="M 24.018736134675446,-6.953439040707552 L 24.277555179777966,-5.987513214418485 A 183.91620689744678 183.91620689744678 0 0 1 33.730276145358296,-8.254409270049052 L 33.52285398976889,-9.232660796687583 A 184.91620689744678 184.91620689744678 0 0 0 24.018736134675446,-6.953439040707552 Z M 105.946859906945,-10.088904731251546 L 105.76262355335169,-9.106022761727928 A 183.91620689744678 183.91620689744678 0 0 1 115.26629634001823,-7.063241583008906 L 114.55856549599818,-4.1479170637790705 L 122.18667535889118,-5.897757033500426 L 116.20993746537829,-10.950340941982018 L 115.50220662135824,-8.035016422752184 A 184.91620689744678 184.91620689744678 0 0 0 105.946859906945,-10.088904731251546"/><text text-anchor="middle" pointer-events="none" font-size="8px" fill="#000000" x="69.6984356538849" y="-9.741418947042717" font-family="sans-serif">WAS_VIEWED_BY</text></g><g class="relationship" transform="translate(-357.66561945272196 244.82475880573313) rotate(244.5522504171089)"><path class="outline" fill="#A5ABB6" stroke="none" d="M 25 0.5 L 36.95586948313078 0.5 L 36.95586948313078 -0.5 L 25 -0.5 Z M 109.65899448313078 0.5 L 121.61486396626157 0.5 L 121.61486396626157 3.5 L 128.61486396626157 0 L 121.61486396626157 -3.5 L 121.61486396626157 -0.5 L 109.65899448313078 -0.5 Z"/><text text-anchor="middle" pointer-events="none" font-size="8px" fill="#000000" x="73.30743198313078" y="3" transform="rotate(180 73.30743198313078 0)" font-family="sans-serif">WAS_VIEWED_BY</text></g><g class="relationship" transform="translate(-362.32740226345993 -41.458597156345434) rotate(472.57223459501773)"><path class="outline" fill="#A5ABB6" stroke="none" d="M 25 0.5 L 40.055939090499265 0.5 L 40.055939090499265 -0.5 L 25 -0.5 Z M 112.75906409049927 0.5 L 127.81500318099853 0.5 L 127.81500318099853 3.5 L 134.81500318099853 0 L 127.81500318099853 -3.5 L 127.81500318099853 -0.5 L 112.75906409049927 -0.5 Z"/><text text-anchor="middle" pointer-events="none" font-size="8px" fill="#000000" x="76.40750159049927" y="3" transform="rotate(180 76.40750159049927 0)" font-family="sans-serif">WAS_VIEWED_BY</text></g><g class="relationship" transform="translate(320.827130998974 94.19236696870303) rotate(195.0069214325739)"><path class="outline" fill="#A5ABB6" stroke="none" d="M 24.018736134675446,-6.953439040707552 L 24.277555179777966,-5.987513214418485 A 916.9979890542983 916.9979890542983 0 0 1 235.49997898916524,-36.86154972757993 L 235.4715011512743,-37.86114415170846 A 917.9979890542983 917.9979890542983 0 0 0 24.018736134675446,-6.953439040707552 Z M 281.49148090061243,-38.01823459115917 L 281.4698279317934,-37.01846904417266 A 916.9979890542983 916.9979890542983 0 0 1 492.8981056542059,-7.587162075862131 L 492.141449665816,-4.68415127408516 L 499.7979068564171,-6.3054665699153025 L 493.9069803053924,-11.457843144898092 L 493.1503243170025,-8.554832343121122 A 917.9979890542983 917.9979890542983 0 0 0 281.49148090061243,-38.01823459115917"/><text text-anchor="middle" pointer-events="none" font-size="8px" fill="#000000" x="258.48221323524746" y="-34.7281166133107" transform="rotate(180 258.48221323524746 -37.7281166133107)" font-family="sans-serif">ORDERED</text></g><g class="relationship" transform="translate(320.827130998974 94.19236696870303) rotate(523.3172054397958)"><path class="outline" fill="#A5ABB6" stroke="none" d="M 24.018736134675446,-6.953439040707552 L 24.277555179777966,-5.987513214418485 A 936.505286765909 936.505286765909 0 0 1 240.54144738895988,-37.53378848758143 L 240.51355484824052,-38.53339941497882 A 937.505286765909 937.505286765909 0 0 0 24.018736134675446,-6.953439040707552 Z M 286.53322127810804,-38.68756000325516 L 286.5120264514499,-37.68778463882427 A 936.505286765909 936.505286765909 0 0 1 502.9824154196458,-7.591119424338136 L 502.2253899350324,-4.688204955111412 L 509.8820534286104,-6.308545705111363 L 503.9917827324636,-11.461672049973767 L 503.2347572478502,-8.558757580747043 A 937.505286765909 937.505286765909 0 0 0 286.53322127810804,-38.68756000325516"/><text text-anchor="middle" pointer-events="none" font-size="8px" fill="#000000" x="263.5241169312697" y="-35.392899671329815" transform="rotate(180 263.5241169312697 -38.392899671329815)" font-family="sans-serif">ORDERED</text></g><g class="relationship" transform="translate(320.827130998974 94.19236696870303) rotate(360.2243455505337)"><path class="outline" fill="#A5ABB6" stroke="none" d="M 25 0.5 L 126.04561489642964 0.5 L 126.04561489642964 -0.5 L 25 -0.5 Z M 169.45186489642964 0.5 L 270.4974797928593 0.5 L 270.4974797928593 3.5 L 277.4974797928593 0 L 270.4974797928593 -3.5 L 270.4974797928593 -0.5 L 169.45186489642964 -0.5 Z"/><text text-anchor="middle" pointer-events="none" font-size="8px" fill="#000000" x="147.74873989642964" y="3" font-family="sans-serif">CREATED</text></g><g class="relationship" transform="translate(-109.88049301878453 98.23942442704376) rotate(241.6440613381394)"><path class="outline" fill="#A5ABB6" stroke="none" d="M 24.018736134675446,-6.953439040707552 L 24.277555179777966,-5.987513214418485 A 208.0792557367479 208.0792557367479 0 0 1 52.972064644963666,-11.550880020989155 L 52.851147426564566,-12.543542615375912 A 209.0792557367479 209.0792557367479 0 0 0 24.018736134675446,-6.953439040707552 Z M 98.86527252486329,-13.047141040606334 L 98.76610992264051,-12.052069797769718 A 208.0792557367479 208.0792557367479 0 0 1 127.57550730710587,-7.118050542026445 L 126.86265761418233,-4.203973447078746 L 134.49382881080442,-5.940414107696142 L 128.52597356433725,-11.003486668623378 L 127.81312387141371,-8.089409573675677 A 209.0792557367479 209.0792557367479 0 0 0 98.86527252486329,-13.047141040606334"/><text text-anchor="middle" pointer-events="none" font-size="8px" fill="#000000" x="75.84978485034485" y="-10.565151170672095" transform="rotate(180 75.84978485034485 -13.565151170672095)" font-family="sans-serif">ORDERED</text></g><g class="relationship" transform="translate(-109.88049301878453 98.23942442704376) rotate(478.45199472135806)"><path class="outline" fill="#A5ABB6" stroke="none" d="M 24.018736134675446,-6.953439040707552 L 24.277555179777966,-5.987513214418485 A 229.6427255042293 229.6427255042293 0 0 1 58.457990940191124,-12.419410634224135 L 58.34801369134129,-13.413344739049705 A 230.6427255042293 230.6427255042293 0 0 0 24.018736134675446,-6.953439040707552 Z M 104.36882864166132,-13.885635023170238 L 104.27927297721544,-12.889653204578337 A 229.6427255042293 229.6427255042293 0 0 1 138.5845110118763,-7.160592498328879 L 137.8676882414375,-4.247490180218437 L 145.5012202158738,-5.973523086990068 L 139.5402747057947,-11.044728922476136 L 138.8234519353559,-8.131626604365692 A 230.6427255042293 230.6427255042293 0 0 0 104.36882864166132,-13.885635023170238"/><text text-anchor="middle" pointer-events="none" font-size="8px" fill="#000000" x="81.35174239885272" y="-11.300281016108102" transform="rotate(180 81.35174239885272 -14.300281016108102)" font-family="sans-serif">ORDERED</text></g><g class="relationship" transform="translate(-109.88049301878453 98.23942442704376) rotate(359.3078295237076)"><path class="outline" fill="#A5ABB6" stroke="none" d="M 25 0.5 L 36.43555888090013 0.5 L 36.43555888090013 -0.5 L 25 -0.5 Z M 79.84180888090013 0.5 L 91.27736776180026 0.5 L 91.27736776180026 3.5 L 98.27736776180026 0 L 91.27736776180026 -3.5 L 91.27736776180026 -0.5 L 79.84180888090013 -0.5 Z"/><text text-anchor="middle" pointer-events="none" font-size="8px" fill="#000000" x="58.13868388090013" y="3" font-family="sans-serif">CREATED</text></g><g class="relationship" transform="translate(-423.6720543403204 106.11399143419028) rotate(328.2348839644858)"><path class="outline" fill="#A5ABB6" stroke="none" d="M 24.018736134675446,-6.953439040707552 L 24.277555179777966,-5.987513214418485 A 445.09665615802214 445.09665615802214 0 0 1 113.70892116279367,-20.40728670908129 L 113.65102783741003,-21.405609483977287 A 446.09665615802214 446.09665615802214 0 0 0 24.018736134675446,-6.953439040707552 Z M 159.68128180876602,-21.696042494491962 L 159.6359906485994,-20.69706866560017 A 445.09665615802214 445.09665615802214 0 0 1 249.24219526354503,-7.406952649177152 L 248.5023661924433,-4.499607993730747 L 256.1493043047702,-6.165242259180889 L 250.22863402501397,-11.283412189772358 L 249.48880495391225,-8.376067534325953 A 446.09665615802214 446.09665615802214 0 0 0 159.68128180876602,-21.696042494491962"/><text text-anchor="middle" pointer-events="none" font-size="8px" fill="#000000" x="136.6655609725524" y="-18.644944391707497" font-family="sans-serif">ORDERED</text></g><g class="relationship" transform="translate(-423.6720543403204 106.11399143419028) rotate(391.26176326952685)"><path class="outline" fill="#A5ABB6" stroke="none" d="M 24.018736134675446,-6.953439040707552 L 24.277555179777966,-5.987513214418485 A 429.734951090462 429.734951090462 0 0 1 109.75506490881999,-19.858439701615282 L 109.6951533752246,-20.856643392322894 A 430.734951090462 430.734951090462 0 0 0 24.018736134675446,-6.953439040707552 Z M 155.7257108732984,-21.155306291002603 L 155.67875725146226,-20.156409220531145 A 429.734951090462 429.734951090462 0 0 1 241.32906187054877,-7.395821861425158 L 240.59027218122642,-4.488212913345827 L 248.2366143642876,-6.156580744352901 L 242.31411478964523,-11.272633792197599 L 241.57532510032289,-8.365024844118267 A 430.734951090462 430.734951090462 0 0 0 155.7257108732984,-21.155306291002603"/><text text-anchor="middle" pointer-events="none" font-size="8px" fill="#000000" x="132.7096837187721" y="-18.12132067827008" font-family="sans-serif">ORDERED</text></g><g class="relationship" transform="translate(-423.6720543403204 106.11399143419028) rotate(358.58666182466504)"><path class="outline" fill="#A5ABB6" stroke="none" d="M 25 0.5 L 62.13816443422519 0.5 L 62.13816443422519 -0.5 L 25 -0.5 Z M 105.54441443422519 0.5 L 142.68257886845038 0.5 L 142.68257886845038 3.5 L 149.68257886845038 0 L 142.68257886845038 -3.5 L 142.68257886845038 -0.5 L 105.54441443422519 -0.5 Z"/><text text-anchor="middle" pointer-events="none" font-size="8px" fill="#000000" x="83.84128943422519" y="3" font-family="sans-serif">CREATED</text></g><g class="relationship" transform="translate(-423.6720543403204 106.11399143419028) rotate(471.6633427281904)"><path class="outline" fill="#A5ABB6" stroke="none" d="M 24.018736134675446,-6.953439040707552 L 24.277555179777966,-5.987513214418485 A 183.91620689744678 183.91620689744678 0 0 1 46.84460978493071,-10.542577320500897 L 46.708493654301286,-11.533270208828299 A 184.91620689744678 184.91620689744678 0 0 0 24.018736134675446,-6.953439040707552 Z M 92.71051476267662,-12.07713616947089 L 92.59785864191606,-11.083502132989054 A 183.91620689744678 183.91620689744678 0 0 1 115.26629634001823,-7.063241583008906 L 114.55856549599818,-4.1479170637790705 L 122.18667535889118,-5.897757033500426 L 116.20993746537829,-10.950340941982018 L 115.50220662135824,-8.035016422752184 A 184.91620689744678 184.91620689744678 0 0 0 92.71051476267662,-12.07713616947089"/><text text-anchor="middle" pointer-events="none" font-size="8px" fill="#000000" x="69.6984356538849" y="-9.741418947042717" transform="rotate(180 69.6984356538849 -12.741418947042717)" font-family="sans-serif">ORDERED</text></g><g class="relationship" transform="translate(-423.6720543403204 106.11399143419028) rotate(539.7543504778232)"><path class="outline" fill="#A5ABB6" stroke="none" d="M 25 0.5 L 57.20442520460155 0.5 L 57.20442520460155 -0.5 L 25 -0.5 Z M 100.61067520460155 0.5 L 132.8151004092031 0.5 L 132.8151004092031 3.5 L 139.8151004092031 0 L 132.8151004092031 -3.5 L 132.8151004092031 -0.5 L 100.61067520460155 -0.5 Z"/><text text-anchor="middle" pointer-events="none" font-size="8px" fill="#000000" x="78.90755020460155" y="3" transform="rotate(180 78.90755020460155 0)" font-family="sans-serif">CREATED</text></g><g class="relationship" transform="translate(-423.6720543403204 106.11399143419028) rotate(251.96703481126713)"><path class="outline" fill="#A5ABB6" stroke="none" d="M 24.018736134675446,-6.953439040707552 L 24.277555179777966,-5.987513214418485 A 208.4222915219871 208.4222915219871 0 0 1 53.05921771791208,-11.564901696591221 L 52.93849168737128,-12.557587561077014 A 209.4222915219871 209.4222915219871 0 0 0 24.018736134675446,-6.953439040707552 Z M 98.95274813751227,-13.060656197549235 L 98.85375421314411,-12.065568159766542 A 208.4222915219871 208.4222915219871 0 0 1 127.75047647793089,-7.118770903775332 L 127.03755950825357,-4.204710267078474 L 134.66877079183644,-5.94097474731105 L 128.70103243750066,-11.004185086037811 L 127.98811546782333,-8.090124449340951 A 209.4222915219871 209.4222915219871 0 0 0 98.95274813751227,-13.060656197549235"/><text text-anchor="middle" pointer-events="none" font-size="8px" fill="#000000" x="75.93722647550895" y="-10.57684566792716" transform="rotate(180 75.93722647550895 -13.57684566792716)" font-family="sans-serif">ORDERED</text></g></g><g class="layer nodes"><g class="node" transform="translate(320.827130998974,94.19236696870303)"><circle class="outline" cx="0" cy="0" r="25" fill="#DE9BF9" stroke="#BF85D6" stroke-width="2px"/><text text-anchor="middle" pointer-events="none" font-family="sans-serif" dy="1.5625" font-size="25" fill="#FFFFFF"/><text text-anchor="middle" pointer-events="none" y="5" font-size="10px" fill="#FFFFFF" font-family="sans-serif"> Smith</text></g><g class="node" transform="translate(-109.88049301878453,98.23942442704376)"><circle class="outline" cx="0" cy="0" r="25" fill="#DE9BF9" stroke="#BF85D6" stroke-width="2px"/><text text-anchor="middle" pointer-events="none" font-family="sans-serif" dy="1.5625" font-size="25" fill="#FFFFFF"/><text text-anchor="middle" pointer-events="none" y="5" font-size="10px" fill="#FFFFFF" font-family="sans-serif"> Ivanoff</text></g><g class="node" transform="translate(-423.6720543403204,106.11399143419028)"><circle class="outline" cx="0" cy="0" r="25" fill="#DE9BF9" stroke="#BF85D6" stroke-width="2px"/><text text-anchor="middle" pointer-events="none" font-family="sans-serif" dy="1.5625" font-size="25" fill="#FFFFFF"/><text text-anchor="middle" pointer-events="none" y="5" font-size="10px" fill="#FFFFFF" font-family="sans-serif"> Petroff</text></g><g class="node selected" transform="translate(-190.76607245212364,247.5102437821666)"><circle class="outline" cx="0" cy="0" r="25" fill="#68BDF6" stroke="#5CA8DB" stroke-width="2px"/><text text-anchor="middle" pointer-events="none" font-family="sans-serif" dy="1.5625" font-size="25" fill="#FFFFFF"/><text text-anchor="middle" pointer-events="none" y="5" font-size="10px" fill="#FFFFFF" font-family="sans-serif"> 1234567</text></g><g class="node" transform="translate(-185.29163107007412,-41.48727843268678)"><circle class="outline" cx="0" cy="0" r="25" fill="#68BDF6" stroke="#5CA8DB" stroke-width="2px"/><text text-anchor="middle" pointer-events="none" font-family="sans-serif" dy="1.5625" font-size="25" fill="#FFFFFF"/><text text-anchor="middle" pointer-events="none" y="5" font-size="10px" fill="#FFFFFF" font-family="sans-serif"> 1234568</text></g><g class="node" transform="translate(-472.8780813202175,-45.03063782457742)"><circle class="outline" cx="0" cy="0" r="25" fill="#68BDF6" stroke="#5CA8DB" stroke-width="2px"/><text text-anchor="middle" pointer-events="none" font-family="sans-serif" dy="1.5625" font-size="25" fill="#FFFFFF"/><text text-anchor="middle" pointer-events="none" y="5" font-size="10px" fill="#FFFFFF" font-family="sans-serif"> 1234569</text></g><g class="node" transform="translate(-477.74585952217717,242.2489264570197)"><circle class="outline" cx="0" cy="0" r="25" fill="#68BDF6" stroke="#5CA8DB" stroke-width="2px"/><text text-anchor="middle" pointer-events="none" font-family="sans-serif" dy="1.5625" font-size="25" fill="#FFFFFF"/><text text-anchor="middle" pointer-events="none" y="5" font-size="10px" fill="#FFFFFF" font-family="sans-serif"> 1234570</text></g><g class="node" transform="translate(-357.66561945272196,244.82475880573313)"><circle class="outline" cx="0" cy="0" r="25" fill="#68BDF6" stroke="#5CA8DB" stroke-width="2px"/><text text-anchor="middle" pointer-events="none" font-family="sans-serif" dy="1.5625" font-size="25" fill="#FFFFFF"/><text text-anchor="middle" pointer-events="none" y="5" font-size="10px" fill="#FFFFFF" font-family="sans-serif"> 1234571</text></g><g class="node" transform="translate(-362.32740226345993,-41.458597156345434)"><circle class="outline" cx="0" cy="0" r="25" fill="#68BDF6" stroke="#5CA8DB" stroke-width="2px"/><text text-anchor="middle" pointer-events="none" font-family="sans-serif" dy="1.5625" font-size="25" fill="#FFFFFF"/><text text-anchor="middle" pointer-events="none" y="5" font-size="10px" fill="#FFFFFF" font-family="sans-serif"> 1234572</text></g><g class="node" transform="translate(638.3221769105661,95.4355469287677)"><circle class="outline" cx="0" cy="0" r="40" fill="#FF756E" stroke="#E06760" stroke-width="2px"/><text text-anchor="middle" pointer-events="none" font-family="sans-serif" dy="2.5" font-size="40" fill="#FFFFFF"/><text text-anchor="middle" pointer-events="none" y="5" font-size="10px" fill="#FFFFFF" font-family="sans-serif"> #20180220001</text></g><g class="node" transform="translate(28.38678461436686,96.5689840512172)"><circle class="outline" cx="0" cy="0" r="40" fill="#FF756E" stroke="#E06760" stroke-width="2px"/><text text-anchor="middle" pointer-events="none" font-family="sans-serif" dy="2.5" font-size="40" fill="#FFFFFF"/><text text-anchor="middle" pointer-events="none" y="5" font-size="10px" fill="#FFFFFF" font-family="sans-serif"> #20180220002</text></g><g class="node" transform="translate(-603.4855020949815,106.8849270693523)"><circle class="outline" cx="0" cy="0" r="40" fill="#FF756E" stroke="#E06760" stroke-width="2px"/><text text-anchor="middle" pointer-events="none" font-family="sans-serif" dy="2.5" font-size="40" fill="#FFFFFF"/><text text-anchor="middle" pointer-events="none" y="5" font-size="10px" fill="#FFFFFF" font-family="sans-serif"> #20180221003</text></g><g class="node" transform="translate(-234.0471816540878,101.43548901183678)"><circle class="outline" cx="0" cy="0" r="40" fill="#FF756E" stroke="#E06760" stroke-width="2px"/><text text-anchor="middle" pointer-events="none" font-family="sans-serif" dy="2.5" font-size="40" fill="#FFFFFF"/><text text-anchor="middle" pointer-events="none" y="5" font-size="10px" fill="#FFFFFF" font-family="sans-serif"> #20180222004</text></g></g></svg>